<?xml version="1.0" encoding="iso-8859-1"?>
<!-- Uploaded to: SVG Repo, www.svgrepo.com, Generator: SVG Repo Mixer Tools -->
<svg height="800px" width="800px" version="1.1" id="Layer_1" xmlns="http://www.w3.org/2000/svg" xmlns:xlink="http://www.w3.org/1999/xlink" 
	 viewBox="0 0 508 508" xml:space="preserve">
<path style="fill:#EFDC81;" d="M292.592,502c64,0,124-24,170.4-68c-95.6-4-172.8-84-172.8-180s77.2-176,172.8-180
	c-46.4-44-106.4-68-170.4-68c-136.8,0-248,111.2-248,248S155.792,502,292.592,502z"/>
<path d="M291.392,508c-140,0-254-114-254-254s114-254,254-254c66.8,0,130,26,178,72.8c1.2,1.2,1.6,2.8,0.8,4.4s-2,2.4-3.6,2.4
	c-94.4,1.6-171.6,79.6-171.6,174.4c0,94.4,76.8,172.8,171.6,174.4c1.6,0,3.2,1.2,3.6,2.4s0.4,3.2-0.8,4.4
	C421.392,482,358.192,508,291.392,508z M291.392,8c-135.6,0-246,110.4-246,246s110.4,246,246,246c61.6,0,120-22.8,165.6-64
	c-94.4-6.4-170-86-170-182c0-95.6,75.2-175.2,170-182C411.392,30.8,352.992,8,291.392,8z"/>
<path d="M291.392,488c-129.2,0-234-105.2-234-234s105.2-234,234-234c14.8,0,29.6,1.2,43.6,4c2,0.4,3.6,2.4,3.2,4.8
	c-0.4,2-2.4,3.6-4.8,3.2c-14-2.8-28-4-42.4-4c-124.8,0-226,101.6-226,226c0,124.8,101.6,226,226,226c42,0,82.8-11.6,118-33.2
	c-84-26.4-142-104.4-142-192.8s58-166.8,142-192.8c-12.4-7.6-25.6-14-38.8-19.2c-2-0.8-3.2-3.2-2.4-5.2s3.2-3.2,5.2-2.4
	c16.8,6.4,32.8,14.4,48,24.4c1.2,0.8,2,2.4,1.6,4s-1.2,2.8-2.8,3.2c-85.2,22.8-144.8,100-144.8,187.6c0,88,59.6,165.2,144.8,187.6
	c1.6,0.4,2.8,1.6,2.8,3.2s-0.4,3.2-1.6,4C382.592,474.4,337.792,488,291.392,488z"/>
</svg>